<svg width="266" height="60" viewBox="0 0 266 60" fill="none" xmlns="http://www.w3.org/2000/svg">
<path fill-rule="evenodd" clip-rule="evenodd" d="M65 44.6495H70.3741V4.86787H84.1033V0.447401H65V44.6495ZM93.0442 42.3252C93.8256 40.9922 94.5505 39.4731 94.9008 37.9478C95.3993 35.8282 95.4817 32.0268 95.6066 31.5378C95.6898 31.2119 95.7314 22.3219 95.7314 4.86787L106.209 4.88755V44.8634H111.512V0.447401H90.7479V31.5378C90.7085 33.2167 90.2892 35.3668 89.9174 36.9992C89.6584 38.1418 89.6668 38.5482 89.0868 39.5493C88.66 40.2925 87.3817 41.1033 86.6525 41.5013C85.9525 41.849 85.1875 42.024 84.4148 42.013V44.8634C84.7373 45.0055 85.0728 45.1118 85.4159 45.1807C86.2427 45.4077 87.0947 45.5144 87.9485 45.4979C88.9074 45.4937 89.8497 45.232 90.6876 44.7372C91.6492 44.1514 92.4586 43.3231 93.0442 42.3252ZM125.794 20.3673C124.536 18.976 123.907 16.6146 123.905 13.283C123.905 9.95313 124.535 7.59228 125.793 6.20048C127.052 4.80868 129.061 4.11306 131.822 4.11363L136.083 4.11363V22.455H131.822C129.062 22.4541 127.052 21.7585 125.794 20.3673ZM123.905 27.7626C123.004 29.2318 122.384 30.8627 122.078 32.5688L120.861 37.9444C120.611 39.0622 120.087 40.0962 119.338 40.9485C118.416 41.7701 117.206 42.1694 115.989 42.0535V44.9046C116.368 45.0345 116.755 45.1401 117.146 45.2208C117.96 45.4423 118.8 45.5487 119.643 45.537C123.093 45.537 125.427 43.0073 126.645 37.9478L127.863 32.5722C128.39 30.3802 129.181 28.8836 130.238 28.0822C131.214 27.3092 132.413 26.8871 133.647 26.8811H136.083V44.9046H141.564V1.26939C140.041 0.810027 138.483 0.482179 136.907 0.289293C135.219 0.0923822 133.521 -0.00270328 131.823 0.00452914C129.73 -0.037038 127.641 0.207671 125.611 0.732164C124.056 1.13137 122.629 1.93785 121.471 3.07233C120.368 4.22937 119.571 5.6545 119.154 7.21373C118.63 9.19175 118.385 11.2359 118.424 13.2847C118.393 14.98 118.64 16.6685 119.154 18.2804C119.577 19.5932 120.216 20.8228 121.042 21.9169C121.761 22.8634 122.663 23.6489 123.69 24.2248C124.61 24.7466 125.608 25.1098 126.643 25.3001V25.5551C125.514 25.9494 124.547 26.7289 123.905 27.7626ZM168.247 0.447401V20.0229H155.277V0.447401H149.719V44.6495H155.277V24.4434H168.247V44.6495H173.806V0.447401H168.247ZM187.609 23.8119H201.043V19.3914H187.609V4.86787H202.876V0.447401H182.112V44.6495H202.874V40.2299H187.609V23.8119ZM233.542 54H236.93V40.1395H232.927V0.447401H227.382V40.1395H215.065V0.447401H209.521V44.5491H231.692C231.869 47.771 232.491 50.9523 233.542 54ZM252.378 22.455C255.139 22.455 257.148 23.1611 258.406 24.5733C259.664 25.9855 260.293 28.4412 260.294 31.9406C260.294 35.4405 259.665 37.8963 258.406 39.3079C257.147 40.7195 255.138 41.4259 252.378 41.427H248.118V22.455H252.378ZM248.253 18.5296V0.447401H242.744V44.2258C244.274 44.6874 245.84 45.0163 247.425 45.2091C249.121 45.4067 250.827 45.5021 252.534 45.4948C254.639 45.5385 256.739 45.2822 258.775 44.7333C260.337 44.3133 261.768 43.4945 262.936 42.3539C264.053 41.1753 264.854 39.7222 265.261 38.135C265.789 36.0862 266.037 33.9724 265.996 31.854C265.996 26.7781 265.047 23.1826 263.15 21.0676C261.253 18.9526 258.326 17.8952 254.369 17.8952C253.308 17.9028 252.247 17.9665 251.192 18.0862C250.204 18.1822 249.224 18.3305 248.253 18.5296Z" fill="#333333"/>
<path d="M31.6908 0C17.2034 4.85494 4.98287 14.7523 0 29.5C4.92596 44.0796 17.0317 54.0874 31.6908 59C44.7261 49.0137 51.8342 40.9938 57.0634 29.5C49.5576 24.4927 46.4047 21.9149 40.3193 14.1664C32.166 17.9289 25.0691 22.3137 18.7823 29.3399C21.0384 32.5331 24.7841 35.5139 27.8126 37.9627C32.2262 34.7399 35.5921 31.5996 37.7723 28.9052C39.1394 30.565 40.6809 31.6694 42.149 32.5926C38.3567 39.0033 34.1007 42.523 28.8452 45.8848C20.9513 41.7324 14.606 34.5449 11.522 28.4676C17.3024 18.9978 26.3688 12.6037 36.6707 9.04033C35.0017 6.13572 32.8141 3.43075 31.6908 0Z" fill="#FFE30B"/>
<path d="M67.756 57.1441C69.28 57.1441 70.336 55.9681 70.336 54.0961C70.336 52.2121 69.28 51.0601 67.756 51.0601C66.94 51.0601 66.22 51.4801 65.8 52.0681V51.2041H64.9V59.2081H65.8V56.1241C66.268 56.7721 66.964 57.1441 67.756 57.1441ZM67.528 56.3401C66.82 56.3401 66.112 55.9081 65.8 55.4041V52.7881C66.112 52.2841 66.82 51.8641 67.528 51.8641C68.692 51.8641 69.388 52.8121 69.388 54.0961C69.388 55.3801 68.692 56.3401 67.528 56.3401Z" fill="#333333"/>
<path d="M74.2992 57.1441C76.0632 57.1441 77.1672 55.7761 77.1672 54.0961C77.1672 52.4161 76.0632 51.0601 74.2992 51.0601C72.5352 51.0601 71.4312 52.4161 71.4312 54.0961C71.4312 55.7761 72.5352 57.1441 74.2992 57.1441ZM74.2992 56.3401C73.0632 56.3401 72.3672 55.2841 72.3672 54.0961C72.3672 52.9201 73.0632 51.8641 74.2992 51.8641C75.5352 51.8641 76.2192 52.9201 76.2192 54.0961C76.2192 55.2841 75.5352 56.3401 74.2992 56.3401Z" fill="#333333"/>
<path d="M80.6864 57.1441C82.3544 57.1441 83.3384 56.4241 83.3384 55.4521C83.3384 54.4921 82.3304 54.0841 81.6584 54.0361C82.3424 53.9521 83.2184 53.4841 83.2184 52.6201C83.2184 51.6361 82.1144 51.0601 80.5544 51.0721C79.4984 51.0721 78.7184 51.4441 78.1784 51.9961L78.6464 52.5481C79.1384 52.0441 79.7744 51.8041 80.5904 51.8041C81.5504 51.8041 82.2824 52.1761 82.2824 52.7281C82.2824 53.3881 81.5264 53.7001 80.5664 53.7001H79.2704V54.4321H80.5664C81.5864 54.4321 82.3904 54.6721 82.3904 55.3921C82.3904 56.0041 81.7184 56.4001 80.6864 56.4001C79.8224 56.4001 79.0544 56.1361 78.5144 55.6201L78.0704 56.1961C78.6464 56.7721 79.5224 57.1441 80.6864 57.1441Z" fill="#333333"/>
<path d="M87.6545 57.1441C89.1785 57.1441 90.2345 55.9681 90.2345 54.0961C90.2345 52.2121 89.1785 51.0601 87.6545 51.0601C86.8385 51.0601 86.1185 51.4801 85.6985 52.0681V51.2041H84.7985V59.2081H85.6985V56.1241C86.1665 56.7721 86.8625 57.1441 87.6545 57.1441ZM87.4265 56.3401C86.7185 56.3401 86.0105 55.9081 85.6985 55.4041V52.7881C86.0105 52.2841 86.7185 51.8641 87.4265 51.8641C88.5905 51.8641 89.2865 52.8121 89.2865 54.0961C89.2865 55.3801 88.5905 56.3401 87.4265 56.3401Z" fill="#333333"/>
<path d="M94.1976 57.1441C95.9616 57.1441 97.0657 55.7761 97.0657 54.0961C97.0657 52.4161 95.9616 51.0601 94.1976 51.0601C92.4336 51.0601 91.3296 52.4161 91.3296 54.0961C91.3296 55.7761 92.4336 57.1441 94.1976 57.1441ZM94.1976 56.3401C92.9616 56.3401 92.2656 55.2841 92.2656 54.0961C92.2656 52.9201 92.9616 51.8641 94.1976 51.8641C95.4336 51.8641 96.1176 52.9201 96.1176 54.0961C96.1176 55.2841 95.4336 56.3401 94.1976 56.3401Z" fill="#333333"/>
<path d="M101.065 56.3401C99.8288 56.3401 99.1328 55.2841 99.1328 54.0841C99.1328 52.9201 99.8288 51.8641 101.065 51.8641C102.301 51.8641 102.985 52.9201 102.985 54.0841C102.985 55.2841 102.301 56.3401 101.065 56.3401ZM101.065 57.1441C102.853 57.1441 103.921 55.7521 103.921 54.0841C103.921 52.4401 102.853 51.0601 101.209 51.0601C100.177 51.0601 99.4448 51.6361 99.0248 52.2961C99.2288 51.3121 99.7448 50.5681 101.461 50.3281C102.445 50.1961 103.741 49.9441 103.741 48.9961H102.865C102.865 49.2361 102.505 49.3921 101.233 49.5841C99.2168 49.8481 98.1968 51.0121 98.1968 53.8321C98.1968 55.7521 99.2888 57.1441 101.065 57.1441Z" fill="#333333"/>
<path d="M110.559 57.0001L107.979 53.8321L110.547 51.2041H109.407L106.359 54.2881V51.2041H105.459V57.0001H106.359V55.3441L107.319 54.3961L109.407 57.0001H110.559Z" fill="#333333"/>
<path d="M116.147 57.0001V53.0161C116.147 51.6121 115.127 51.0601 113.903 51.0601C112.955 51.0601 112.211 51.3721 111.587 52.0201L112.007 52.6441C112.523 52.0921 113.087 51.8401 113.783 51.8401C114.623 51.8401 115.247 52.2841 115.247 53.0641V54.1081C114.779 53.5681 114.119 53.3161 113.327 53.3161C112.343 53.3161 111.299 53.9281 111.299 55.2241C111.299 56.4841 112.343 57.1441 113.327 57.1441C114.107 57.1441 114.767 56.8681 115.247 56.3401V57.0001H116.147ZM113.651 56.4961C112.811 56.4961 112.223 55.9681 112.223 55.2361C112.223 54.4921 112.811 53.9641 113.651 53.9641C114.287 53.9641 114.899 54.2041 115.247 54.6841V55.7761C114.899 56.2561 114.287 56.4961 113.651 56.4961Z" fill="#333333"/>
<path d="M123.001 57.0001V51.9961H124.693V51.2041H120.421V51.9961H122.101V57.0001H123.001Z" fill="#333333"/>
<path d="M130.397 57.0001V53.0161C130.397 51.6121 129.377 51.0601 128.153 51.0601C127.205 51.0601 126.461 51.3721 125.837 52.0201L126.257 52.6441C126.773 52.0921 127.337 51.8401 128.033 51.8401C128.873 51.8401 129.497 52.2841 129.497 53.0641V54.1081C129.029 53.5681 128.369 53.3161 127.577 53.3161C126.593 53.3161 125.549 53.9281 125.549 55.2241C125.549 56.4841 126.593 57.1441 127.577 57.1441C128.357 57.1441 129.017 56.8681 129.497 56.3401V57.0001H130.397ZM127.901 56.4961C127.061 56.4961 126.473 55.9681 126.473 55.2361C126.473 54.4921 127.061 53.9641 127.901 53.9641C128.537 53.9641 129.149 54.2041 129.497 54.6841V55.7761C129.149 56.2561 128.537 56.4961 127.901 56.4961Z" fill="#333333"/>
<path d="M140.119 57.0001V51.2041H135.295V57.0001H136.195V51.9961H139.219V57.0001H140.119Z" fill="#333333"/>
<path d="M142.36 50.3761C142.696 50.3761 142.972 50.1121 142.972 49.7761C142.972 49.4401 142.696 49.1641 142.36 49.1641C142.036 49.1641 141.76 49.4401 141.76 49.7761C141.76 50.1121 142.036 50.3761 142.36 50.3761ZM142.816 57.0001V51.2041H141.916V57.0001H142.816Z" fill="#333333"/>
<path d="M143.927 58.4761H144.827V57.0001H149.207V58.4761H150.107V56.2081H149.435V51.2041H145.403L145.031 54.0601C144.803 55.7761 144.467 56.1601 143.927 56.2561V58.4761ZM146.195 51.9961H148.535V56.2081H145.091C145.511 55.8721 145.787 55.2601 145.931 54.1681L146.195 51.9961Z" fill="#333333"/>
<path d="M153.294 57.0001V51.9961H154.986V51.2041H150.714V51.9961H152.394V57.0001H153.294Z" fill="#333333"/>
<path d="M159.022 57.1441C160.546 57.1441 161.602 55.9681 161.602 54.0961C161.602 52.2121 160.546 51.0601 159.022 51.0601C158.206 51.0601 157.486 51.4801 157.066 52.0681V51.2041H156.166V59.2081H157.066V56.1241C157.534 56.7721 158.23 57.1441 159.022 57.1441ZM158.794 56.3401C158.086 56.3401 157.378 55.9081 157.066 55.4041V52.7881C157.378 52.2841 158.086 51.8641 158.794 51.8641C159.958 51.8641 160.654 52.8121 160.654 54.0961C160.654 55.3801 159.958 56.3401 158.794 56.3401Z" fill="#333333"/>
<path d="M163.897 57.0001L166.957 52.4881V57.0001H167.857V51.2041H166.969L163.933 55.6321V51.2041H163.033V57.0001H163.897Z" fill="#333333"/>
<path d="M175.57 57.0001V51.2041H174.37L172.618 55.5001L170.842 51.2041H169.654V57.0001H170.554V52.4521L172.45 57.0001H172.786L174.67 52.4521V57.0001H175.57Z" fill="#333333"/>
<path d="M182.465 57.0001L179.885 53.8321L182.453 51.2041H181.313L178.265 54.2881V51.2041H177.365V57.0001H178.265V55.3441L179.225 54.3961L181.313 57.0001H182.465Z" fill="#333333"/>
<path d="M188.053 57.0001V53.0161C188.053 51.6121 187.033 51.0601 185.809 51.0601C184.861 51.0601 184.117 51.3721 183.493 52.0201L183.913 52.6441C184.429 52.0921 184.993 51.8401 185.689 51.8401C186.529 51.8401 187.153 52.2841 187.153 53.0641V54.1081C186.685 53.5681 186.025 53.3161 185.233 53.3161C184.249 53.3161 183.205 53.9281 183.205 55.2241C183.205 56.4841 184.249 57.1441 185.233 57.1441C186.013 57.1441 186.673 56.8681 187.153 56.3401V57.0001H188.053ZM185.557 56.4961C184.717 56.4961 184.129 55.9681 184.129 55.2361C184.129 54.4921 184.717 53.9641 185.557 53.9641C186.193 53.9641 186.805 54.2041 187.153 54.6841V55.7761C186.805 56.2561 186.193 56.4961 185.557 56.4961Z" fill="#333333"/>
<path d="M195.507 57.1441C196.563 57.1441 197.187 56.7121 197.631 56.1361L197.031 55.5841C196.647 56.1001 196.155 56.3401 195.555 56.3401C194.319 56.3401 193.551 55.3801 193.551 54.0961C193.551 52.8121 194.319 51.8641 195.555 51.8641C196.155 51.8641 196.647 52.0921 197.031 52.6201L197.631 52.0681C197.187 51.4921 196.563 51.0601 195.507 51.0601C193.779 51.0601 192.615 52.3801 192.615 54.0961C192.615 55.8241 193.779 57.1441 195.507 57.1441Z" fill="#333333"/>
<path d="M203.416 57.0001V53.0161C203.416 51.6121 202.396 51.0601 201.172 51.0601C200.224 51.0601 199.48 51.3721 198.856 52.0201L199.276 52.6441C199.792 52.0921 200.356 51.8401 201.052 51.8401C201.892 51.8401 202.516 52.2841 202.516 53.0641V54.1081C202.048 53.5681 201.388 53.3161 200.596 53.3161C199.612 53.3161 198.568 53.9281 198.568 55.2241C198.568 56.4841 199.612 57.1441 200.596 57.1441C201.376 57.1441 202.036 56.8681 202.516 56.3401V57.0001H203.416ZM200.92 56.4961C200.08 56.4961 199.492 55.9681 199.492 55.2361C199.492 54.4921 200.08 53.9641 200.92 53.9641C201.556 53.9641 202.168 54.2041 202.516 54.6841V55.7761C202.168 56.2561 201.556 56.4961 200.92 56.4961Z" fill="#333333"/>
<path d="M206.084 57.0001L209.144 52.4881V57.0001H210.044V51.2041H209.156L206.12 55.6321V51.2041H205.22V57.0001H206.084ZM209.732 49.4881L209.288 49.1041C208.916 49.6441 208.328 49.9681 207.632 49.9681C206.924 49.9681 206.348 49.6321 205.964 49.1041L205.52 49.4881C206.012 50.1361 206.78 50.5441 207.632 50.5441C208.496 50.5441 209.252 50.1361 209.732 49.4881Z" fill="#333333"/>
<path d="M213.797 57.0001V51.9961H215.489V51.2041H211.217V51.9961H212.897V57.0001H213.797Z" fill="#333333"/>
<path d="M217.114 50.3761C217.45 50.3761 217.726 50.1121 217.726 49.7761C217.726 49.4401 217.45 49.1641 217.114 49.1641C216.79 49.1641 216.514 49.4401 216.514 49.7761C216.514 50.1121 216.79 50.3761 217.114 50.3761ZM217.57 57.0001V51.2041H216.67V57.0001H217.57Z" fill="#333333"/>
<path d="M222.617 57.0001C223.685 57.0001 224.309 56.3641 224.309 55.4281C224.309 54.7681 223.841 54.1561 223.253 54.0121C223.745 53.8561 224.189 53.3881 224.189 52.6921C224.189 51.8161 223.577 51.2041 222.557 51.2041H219.365V57.0001H222.617ZM222.437 56.2081H220.265V54.4201H222.437C223.049 54.4201 223.373 54.8521 223.373 55.3201C223.373 55.8721 223.013 56.2081 222.437 56.2081ZM222.401 53.6281H220.265V51.9961H222.401C222.953 51.9961 223.265 52.3201 223.265 52.8241C223.265 53.2801 222.965 53.6281 222.401 53.6281Z" fill="#333333"/>
</svg>
